<svg xmlns="http://www.w3.org/2000/svg" viewBox="0 0 800 600" role="img" aria-hidden="true">
  <defs>
    <linearGradient id="sky" x1="0" y1="0" x2="0" y2="1">
      <stop offset="0" stop-color="#f6edd9"/>
      <stop offset="1" stop-color="#e9d9b8"/>
    </linearGradient>
  </defs>
  <rect width="800" height="600" fill="url(#sky)"/>
  <circle cx="620" cy="110" r="46" fill="#fdf8ec"/>
  <!-- canopy layers -->
  <path d="M0 240 Q100 180 200 220 Q300 260 400 200 Q500 150 600 210 Q700 258 800 208 L800 430 L0 430 Z" fill="#647e1b"/>
  <path d="M0 300 Q130 250 260 290 Q390 330 520 276 Q650 230 800 288 L800 460 L0 460 Z" fill="#536917"/>
  <!-- ground -->
  <path d="M0 452 Q200 436 400 448 Q600 460 800 444 L800 600 L0 600 Z" fill="#3f5012"/>
  <!-- lodge -->
  <g>
    <rect x="300" y="360" width="200" height="95" fill="#b98d4f"/>
    <polygon points="284,360 400,296 516,360" fill="#4a4a45"/>
    <rect x="322" y="384" width="40" height="30" fill="#4a4a45"/>
    <rect x="440" y="384" width="40" height="30" fill="#4a4a45"/>
    <rect x="384" y="396" width="34" height="59" fill="#4a4a45"/>
    <rect x="284" y="452" width="232" height="10" fill="#4a4a45"/>
  </g>
  <!-- flanking trees -->
  <g fill="#3f5012">
    <circle cx="105" cy="330" r="80"/>
    <circle cx="56" cy="374" r="55"/>
    <rect x="96" y="386" width="18" height="106"/>
    <circle cx="695" cy="336" r="76"/>
    <circle cx="748" cy="382" r="52"/>
    <rect x="686" y="390" width="18" height="102"/>
  </g>
  <g fill="#536917">
    <circle cx="230" cy="400" r="36"/>
    <circle cx="574" cy="404" r="34"/>
  </g>
</svg>
