<svg xmlns="http://www.w3.org/2000/svg" viewBox="0 0 1400 640">
  <defs>
    <linearGradient id="hsky" x1="0" y1="0" x2="0" y2="1">
      <stop offset="0" stop-color="#e9f0dc"/><stop offset="0.7" stop-color="#f7f3e6"/>
    </linearGradient>
    <linearGradient id="hwater" x1="0" y1="0" x2="0" y2="1">
      <stop offset="0" stop-color="#8ec2cc"/><stop offset="1" stop-color="#4b93a6"/>
    </linearGradient>
  </defs>
  <rect width="1400" height="640" fill="url(#hsky)"/>
  <circle cx="1080" cy="130" r="60" fill="#f5e3ac"/>
  <path d="M0 330 L220 220 L440 330 Z" fill="#a9bcab" opacity="0.55"/>
  <path d="M300 330 L560 190 L820 330 Z" fill="#93aa97" opacity="0.5"/>
  <path d="M760 330 L1020 210 L1280 330 Z" fill="#a3b7a5" opacity="0.45"/>
  <path d="M0 345 Q350 315 700 338 T1400 332 V640 H0 Z" fill="#6d9752"/>
  <g fill="#1e3a29">
    <path d="M90 350 L130 205 L170 350 Z"/><path d="M185 355 L218 250 L251 355 Z"/>
    <path d="M1180 345 L1222 200 L1264 345 Z"/><path d="M1275 350 L1305 260 L1335 350 Z"/>
    <path d="M1100 355 L1130 275 L1160 355 Z"/><path d="M270 360 L296 290 L322 360 Z"/>
  </g>
  <g>
    <rect x="480" y="265" width="200" height="90" rx="4" fill="#846240"/>
    <path d="M465 270 L580 195 L695 270 Z" fill="#54402c"/>
    <rect x="505" y="288" width="40" height="40" rx="3" fill="#f6d98a"/>
    <rect x="600" y="288" width="40" height="40" rx="3" fill="#f6d98a"/>
  </g>
  <g>
    <rect x="760" y="280" width="170" height="76" rx="4" fill="#7a5a3a"/>
    <path d="M748 284 L845 220 L942 284 Z" fill="#4a3826"/>
    <rect x="782" y="300" width="34" height="34" rx="3" fill="#f6d98a"/>
    <rect x="862" y="300" width="34" height="34" rx="3" fill="#f6d98a"/>
  </g>
  <path d="M0 445 Q350 415 700 435 T1400 430 V640 H0 Z" fill="url(#hwater)"/>
  <g stroke="#eaf5f6" stroke-width="4" opacity="0.6" stroke-linecap="round">
    <path d="M180 505 H340"/><path d="M480 540 H660"/><path d="M840 500 H980"/><path d="M1080 545 H1230"/><path d="M320 585 H470"/>
  </g>
  <path d="M620 470 q14 -6 28 0 q-14 8 -28 0 Z" fill="#faf8f3"/>
  <path d="M960 490 q12 -5 24 0 q-12 7 -24 0 Z" fill="#faf8f3"/>
</svg>
